<svg width="51" height="28" viewBox="0 0 51 28" fill="none" xmlns="http://www.w3.org/2000/svg">
<path d="M12.528 1.352C13.568 1.352 14.088 1.528 14.088 1.88C14.088 2.024 14.016 2.224 13.872 2.48C11.904 5.92 10.664 9.76 10.152 14C9.976 15.376 9.888 16.336 9.888 16.88C9.888 17.152 9.984 17.288 10.176 17.288C10.24 17.288 10.296 17.208 10.344 17.048C10.392 16.888 10.44 16.808 10.488 16.808C10.6 16.808 10.752 16.992 10.944 17.36C11.152 17.712 11.256 17.976 11.256 18.152C11.256 18.616 10.88 19.672 10.128 21.32C9.856 21.944 9.56 22.256 9.24 22.256C9.176 22.256 9.08 22.224 8.952 22.16C8.28 21.76 7.944 20.688 7.944 18.944C7.944 17.184 8.184 14.816 8.664 11.84C8.536 12 8.312 12.312 7.992 12.776C7.672 13.224 7.4 13.584 7.176 13.856C6.968 14.112 6.696 14.4 6.36 14.72C5.704 15.376 5.016 15.704 4.296 15.704C3.576 15.704 2.976 15.448 2.496 14.936C2.352 14.776 2.128 14.392 1.824 13.784C1.536 13.16 1.392 12.496 1.392 11.792C1.392 11.072 1.552 10.32 1.872 9.536C2.208 8.752 2.544 8.064 2.88 7.472C3.216 6.864 3.504 6.368 3.744 5.984C4.192 5.328 4.888 4.312 5.832 2.936C5.928 2.776 5.976 2.648 5.976 2.552C5.976 2.328 5.784 2.216 5.4 2.216C5.032 2.216 4.688 2.288 4.368 2.432C4.048 2.576 3.864 2.68 3.816 2.744C3.768 2.808 3.728 2.92 3.696 3.08L3.72 3.392C3.72 3.76 3.576 4.088 3.288 4.376C3.016 4.648 2.72 4.904 2.4 5.144C2.08 5.368 1.72 5.48 1.32 5.48C0.92 5.48 0.64 5.448 0.48 5.384C0.336 5.304 0.224 5.184 0.144 5.024C0.048 4.8 0 4.448 0 3.968C0 3.488 0.184 3.12 0.552 2.864C0.6 2.832 0.824 2.688 1.224 2.432C1.624 2.16 1.88 1.984 1.992 1.904C2.12 1.824 2.36 1.688 2.712 1.496C3.08 1.288 3.368 1.152 3.576 1.088C4.248 0.847999 4.856 0.727999 5.4 0.727999C5.96 0.727999 6.488 0.935999 6.984 1.352C7.48 1.752 7.728 2.288 7.728 2.96C7.728 3.392 7.584 3.928 7.296 4.568C7.024 5.192 6.472 6.12 5.64 7.352C4.824 8.568 4.296 9.376 4.056 9.776C3.432 10.912 3.12 11.792 3.12 12.416C3.12 13.04 3.264 13.352 3.552 13.352C3.824 13.352 4.216 13.128 4.728 12.68C5.24 12.216 5.632 11.832 5.904 11.528C6.176 11.224 6.496 10.808 6.864 10.28C7.248 9.752 7.52 9.352 7.68 9.08C7.856 8.808 8.128 8.368 8.496 7.76C8.864 7.152 9.152 6.68 9.36 6.344C10.24 4.856 10.952 3.6 11.496 2.576C11.464 2.416 11.448 2.28 11.448 2.168C11.448 1.624 11.808 1.352 12.528 1.352ZM19.2799 15.632C19.2799 18.064 18.0479 19.28 15.5839 19.28C14.5599 19.28 13.8079 19.016 13.3279 18.488C12.8639 17.96 12.4559 17.152 12.1039 16.064C11.9759 15.648 11.9119 15.208 11.9119 14.744C11.9119 14.264 12.1199 13.632 12.5359 12.848C12.9679 12.048 13.4399 11.352 13.9519 10.76C14.0159 9.88 14.2159 9.44 14.5519 9.44C14.7279 9.44 14.8479 9.544 14.9119 9.752C15.2479 9.448 15.6559 9.152 16.1359 8.864C16.6159 8.576 17.0479 8.432 17.4319 8.432C17.8159 8.432 18.2079 8.656 18.6079 9.104C19.0239 9.552 19.2319 10.016 19.2319 10.496C19.2319 10.96 18.9039 11.6 18.2479 12.416C17.0159 13.952 16.0479 14.72 15.3439 14.72C14.8319 14.72 14.4319 14.296 14.1439 13.448C14.1279 13.48 14.0479 13.616 13.9039 13.856C13.7759 14.08 13.6799 14.248 13.6159 14.36C13.5679 14.472 13.4959 14.624 13.3999 14.816C13.2399 15.184 13.1599 15.512 13.1599 15.8C13.1599 16.456 13.4879 16.784 14.1439 16.784C15.2319 16.784 16.1519 16.56 16.9039 16.112C17.6719 15.648 18.4319 14.952 19.1839 14.024C19.2479 14.728 19.2799 15.264 19.2799 15.632ZM15.3679 12.728C15.6239 12.728 15.9999 12.416 16.4959 11.792C17.0079 11.168 17.2639 10.744 17.2639 10.52C17.2639 10.28 17.1759 10.16 16.9999 10.16C16.8399 10.16 16.5519 10.368 16.1359 10.784C15.7359 11.2 15.4159 11.56 15.1759 11.864C15.1439 12.056 15.1279 12.2 15.1279 12.296C15.1279 12.584 15.2079 12.728 15.3679 12.728ZM19.9442 9.032C19.9442 8.792 20.1042 8.688 20.4242 8.72C20.5202 8.72 20.6402 8.72 20.7842 8.72C20.9282 8.72 21.2322 8.648 21.6962 8.504C22.1602 8.344 22.5282 8.264 22.8002 8.264C23.0722 8.264 23.3282 8.376 23.5682 8.6C23.8242 8.808 24.0562 9.08 24.2642 9.416C24.4722 9.752 24.5762 10.104 24.5762 10.472C24.5762 10.824 24.2242 11.776 23.5202 13.328C22.8322 14.864 22.4882 15.688 22.4882 15.8C22.4882 15.912 22.5522 15.968 22.6802 15.968C22.9362 15.968 23.4722 15.504 24.2882 14.576C24.4642 14.368 24.6562 14.096 24.8642 13.76C25.0882 13.408 25.2562 13.144 25.3682 12.968C25.4802 12.792 25.6322 12.488 25.8242 12.056C26.0322 11.624 26.1682 11.344 26.2322 11.216C26.5362 10.576 26.8002 9.968 27.0242 9.392C27.1522 9.12 27.3442 8.984 27.6002 8.984C27.8562 8.984 28.0962 9.136 28.3202 9.44C28.5442 9.744 28.6562 10.048 28.6562 10.352C28.6562 10.88 28.2402 13.104 27.4082 17.024C26.5762 20.944 26.1122 23.12 26.0162 23.552C25.9362 23.984 25.8562 24.96 25.7762 26.48C25.7762 26.976 25.6082 27.224 25.2722 27.224C25.1602 27.224 25.0562 27.2 24.9602 27.152C23.7922 26.672 23.2082 25.648 23.2082 24.08V22.472C23.2082 22.136 23.3122 21.968 23.5202 21.968C23.7122 21.968 23.9122 22.104 24.1202 22.376C24.3442 22.648 24.4642 22.8 24.4802 22.832L25.7762 16.424C25.0562 17.288 24.4882 17.872 24.0722 18.176C23.6562 18.464 23.1522 18.608 22.5602 18.608C21.9842 18.608 21.5202 18.336 21.1682 17.792C20.8162 17.248 20.6402 16.632 20.6402 15.944C20.6402 14.52 21.1442 12.84 22.1522 10.904C21.7042 11.016 21.3362 11.072 21.0482 11.072C20.7762 11.072 20.5762 10.928 20.4482 10.64C20.3842 10.512 20.2802 10.24 20.1362 9.824C20.0082 9.392 19.9442 9.128 19.9442 9.032ZM36.4596 15.632C36.4596 18.064 35.2276 19.28 32.7636 19.28C31.7396 19.28 30.9876 19.016 30.5076 18.488C30.0436 17.96 29.6356 17.152 29.2836 16.064C29.1556 15.648 29.0916 15.208 29.0916 14.744C29.0916 14.264 29.2996 13.632 29.7156 12.848C30.1476 12.048 30.6196 11.352 31.1316 10.76C31.1956 9.88 31.3956 9.44 31.7316 9.44C31.9076 9.44 32.0276 9.544 32.0916 9.752C32.4276 9.448 32.8356 9.152 33.3156 8.864C33.7956 8.576 34.2276 8.432 34.6116 8.432C34.9956 8.432 35.3876 8.656 35.7876 9.104C36.2036 9.552 36.4116 10.016 36.4116 10.496C36.4116 10.96 36.0836 11.6 35.4276 12.416C34.1956 13.952 33.2276 14.72 32.5236 14.72C32.0116 14.72 31.6116 14.296 31.3236 13.448C31.3076 13.48 31.2276 13.616 31.0836 13.856C30.9556 14.08 30.8596 14.248 30.7956 14.36C30.7476 14.472 30.6756 14.624 30.5796 14.816C30.4196 15.184 30.3396 15.512 30.3396 15.8C30.3396 16.456 30.6676 16.784 31.3236 16.784C32.4116 16.784 33.3316 16.56 34.0836 16.112C34.8516 15.648 35.6116 14.952 36.3636 14.024C36.4276 14.728 36.4596 15.264 36.4596 15.632ZM32.5476 12.728C32.8036 12.728 33.1796 12.416 33.6756 11.792C34.1876 11.168 34.4436 10.744 34.4436 10.52C34.4436 10.28 34.3556 10.16 34.1796 10.16C34.0196 10.16 33.7316 10.368 33.3156 10.784C32.9156 11.2 32.5956 11.56 32.3556 11.864C32.3236 12.056 32.3076 12.2 32.3076 12.296C32.3076 12.584 32.3876 12.728 32.5476 12.728ZM37.1239 9.032C37.1239 8.792 37.2839 8.688 37.6039 8.72C37.6999 8.72 37.8199 8.72 37.9639 8.72C38.1079 8.72 38.4119 8.648 38.8759 8.504C39.3399 8.344 39.7079 8.264 39.9799 8.264C40.2519 8.264 40.5079 8.376 40.7479 8.6C41.0039 8.808 41.2359 9.08 41.4439 9.416C41.6519 9.752 41.7559 10.104 41.7559 10.472C41.7559 10.824 41.4039 11.776 40.6999 13.328C40.0119 14.864 39.6679 15.688 39.6679 15.8C39.6679 15.912 39.7319 15.968 39.8599 15.968C40.1159 15.968 40.6519 15.504 41.4679 14.576C41.6439 14.368 41.8359 14.096 42.0439 13.76C42.2679 13.408 42.4359 13.144 42.5479 12.968C42.6599 12.792 42.8119 12.488 43.0039 12.056C43.2119 11.624 43.3479 11.344 43.4119 11.216C43.7159 10.576 43.9799 9.968 44.2039 9.392C44.3319 9.12 44.5239 8.984 44.7799 8.984C45.0359 8.984 45.2759 9.136 45.4999 9.44C45.7239 9.744 45.8359 10.048 45.8359 10.352C45.8359 10.88 45.4199 13.104 44.5879 17.024C43.7559 20.944 43.2919 23.12 43.1959 23.552C43.1159 23.984 43.0359 24.96 42.9559 26.48C42.9559 26.976 42.7879 27.224 42.4519 27.224C42.3399 27.224 42.2359 27.2 42.1399 27.152C40.9719 26.672 40.3879 25.648 40.3879 24.08V22.472C40.3879 22.136 40.4919 21.968 40.6999 21.968C40.8919 21.968 41.0919 22.104 41.2999 22.376C41.5239 22.648 41.6439 22.8 41.6599 22.832L42.9559 16.424C42.2359 17.288 41.6679 17.872 41.2519 18.176C40.8359 18.464 40.3319 18.608 39.7399 18.608C39.1639 18.608 38.6999 18.336 38.3479 17.792C37.9959 17.248 37.8199 16.632 37.8199 15.944C37.8199 14.52 38.3239 12.84 39.3319 10.904C38.8839 11.016 38.5159 11.072 38.2279 11.072C37.9559 11.072 37.7559 10.928 37.6279 10.64C37.5639 10.512 37.4599 10.24 37.3159 9.824C37.1879 9.392 37.1239 9.128 37.1239 9.032ZM47.5136 15.08C47.5136 14.856 47.6096 14.744 47.8016 14.744C48.2336 14.744 48.6496 14.976 49.0496 15.44C49.4656 15.904 49.6736 16.52 49.6736 17.288C49.6736 17.88 49.4416 18.72 48.9776 19.808C48.5296 20.88 48.1856 21.416 47.9456 21.416C47.7216 21.416 47.5456 21.152 47.4176 20.624C47.2896 20.112 47.2256 19.672 47.2256 19.304C47.2256 18.936 47.2496 18.456 47.2976 17.864C47.3456 17.256 47.4096 16.76 47.4896 16.376C47.5696 15.992 47.6096 15.744 47.6096 15.632L47.5136 15.08ZM49.3376 13.424C48.9536 13.424 48.6256 13.24 48.3536 12.872C48.0976 12.488 47.9696 12.04 47.9696 11.528C47.9696 10.984 48.0976 10.536 48.3536 10.184C48.6256 9.816 48.9536 9.632 49.3376 9.632C49.7056 9.632 50.0176 9.816 50.2736 10.184C50.5456 10.536 50.6816 10.984 50.6816 11.528C50.6816 12.04 50.5456 12.488 50.2736 12.872C50.0176 13.24 49.7056 13.424 49.3376 13.424Z" fill="black"/>
</svg>
